<svg width="675" height="74" viewBox="0 0 675 74" fill="none" xmlns="http://www.w3.org/2000/svg">
<path fill-rule="evenodd" clip-rule="evenodd" d="M40.2262 31.104C36.3379 29.3237 31.6743 28.4335 26.2353 28.4335H12.5221V11.7861H45.3643V1H7.78907C4.03957 1 1 4.03653 1 7.78227V65.2466C1 68.9924 4.03958 72.0289 7.78908 72.0289H26.2353C31.6743 72.0289 36.3379 71.0925 40.2262 69.2197C44.1376 67.3468 47.1348 64.7572 49.2179 61.4509C51.3009 58.1214 52.3424 54.2717 52.3424 49.9017C52.3424 45.5549 51.3009 41.7746 49.2179 38.5607C47.1348 35.3468 44.1376 32.8613 40.2262 31.104ZM33.5258 59.8555C31.5354 60.9422 29.1052 61.4856 26.2353 61.4856H12.5221V38.9075H26.2353C30.5402 38.9075 33.8383 39.9711 36.1296 42.0983C38.4441 44.2023 39.6013 46.7572 39.6013 49.763C39.6013 51.8439 39.0805 53.7746 38.039 55.5549C37.0207 57.3353 35.5163 58.7688 33.5258 59.8555Z" stroke="white" stroke-opacity="0.25" stroke-width="0.5"/>
<path d="M78.5362 61.3815C77.3559 61.9133 75.8515 62.1792 74.023 62.1792H69.9612V73H75.0298C78.8255 73 81.9038 72.3526 84.2645 71.0578C86.6484 69.7399 88.581 68.0173 90.0622 65.8902C91.5435 63.7399 92.8512 61.4162 93.9852 58.9191L118.495 1H105.234L89.9234 39.0116L72.2178 1H58.7476L84.1604 53.2312L83.223 55.6243C82.737 56.9422 82.1236 58.0983 81.383 59.0925C80.6655 60.0867 79.7166 60.8497 78.5362 61.3815Z" stroke="white" stroke-opacity="0.25" stroke-width="0.5"/>
<path fill-rule="evenodd" clip-rule="evenodd" d="M121.019 61.5202C122.616 60.2486 124.109 58.4566 125.498 56.1445C126.886 53.8324 128.067 50.6647 129.039 46.6416C130.011 42.6185 130.682 37.4162 131.052 31.0347L132.927 1H178.371V72.0289H121.019V61.5202ZM144.522 11.7861L143.411 31.0347C143.111 35.8671 142.625 40.1907 141.953 44.0058C141.282 47.8208 140.437 51.185 139.419 54.0983C138.401 56.9884 137.267 59.4624 136.017 61.5202H166.012V11.7861H144.522Z" stroke="white" stroke-opacity="0.25" stroke-width="0.5"/>
<path fill-rule="evenodd" clip-rule="evenodd" d="M232.106 31.104C228.218 29.3237 223.554 28.4335 218.115 28.4335H204.402V1H192.845V72.0289H218.115C223.554 72.0289 228.218 71.0925 232.106 69.2197C236.018 67.3468 239.015 64.7572 241.098 61.4509C243.181 58.1214 244.222 54.2717 244.222 49.9017C244.222 45.5549 243.181 41.7746 241.098 38.5607C239.015 35.3468 236.018 32.8613 232.106 31.104ZM204.402 38.9075V61.4856H218.115C220.985 61.4856 223.415 60.9422 225.406 59.8555C227.396 58.7688 228.901 57.3353 229.919 55.5549C230.961 53.7746 231.481 51.8439 231.481 49.763C231.481 46.7572 230.324 44.2023 228.01 42.0983C225.718 39.9711 222.42 38.9075 218.115 38.9075H204.402Z" stroke="white" stroke-opacity="0.25" stroke-width="0.5"/>
<path fill-rule="evenodd" clip-rule="evenodd" d="M304.141 1C309.279 1 313.549 1.80924 316.951 3.42774C320.377 5.02313 322.934 7.20809 324.624 9.98266C326.336 12.7572 327.193 15.9017 327.193 19.4162C327.193 22.3064 326.637 24.7803 325.526 26.8381C324.415 28.8728 322.923 30.526 321.048 31.7977C319.173 33.0694 317.079 33.9827 314.764 34.5376V35.2312C317.287 35.3699 319.706 36.1445 322.02 37.5549C324.358 38.9422 326.267 40.9075 327.748 43.4509C329.23 45.9942 329.97 49.0694 329.97 52.6763C329.97 56.3526 329.079 59.659 327.297 62.5954C325.515 65.5087 322.83 67.8092 319.243 69.4971C315.655 71.185 311.142 72.0289 305.703 72.0289H278.21V1H304.141ZM303.655 61.2775C308.33 61.2775 311.698 60.3873 313.757 58.6069C315.84 56.8035 316.882 54.4913 316.882 51.6705C316.882 49.5665 316.361 47.6705 315.32 45.9827C314.278 44.2717 312.797 42.9306 310.876 41.9595C308.955 40.9653 306.664 40.4682 304.002 40.4682H289.803V61.2775H303.655ZM302.544 31.2081C304.766 31.2081 306.768 30.8035 308.55 29.9942C310.332 29.1619 311.732 27.9942 312.751 26.4913C313.792 24.9653 314.313 23.1618 314.313 21.0809C314.313 18.3295 313.341 16.0636 311.397 14.2832C309.476 12.5029 306.617 11.6127 302.822 11.6127H289.803V31.2081H302.544Z" stroke="white" stroke-opacity="0.25" stroke-width="0.5"/>
<path d="M375.589 40.9884L402.078 72.0289H417.944L387.285 35.4047L416.729 1H400.863L375.589 30.2023V1H362.709V72.0289H375.589V40.9884Z" stroke="white" stroke-opacity="0.25" stroke-width="0.5"/>
<path d="M441.694 62.1792C443.522 62.1792 445.027 61.9133 446.207 61.3815C447.387 60.8497 448.336 60.0867 449.054 59.0925C449.794 58.0983 450.408 56.9422 450.894 55.6243L451.831 53.2312L426.418 1H439.889L457.594 39.0116L472.904 1H486.166L461.656 58.9191C460.522 61.4162 459.214 63.7399 457.733 65.8902C456.252 68.0173 454.319 69.7399 451.935 71.0578C449.575 72.3526 446.496 73 442.701 73H437.632V62.1792H441.694Z" stroke="white" stroke-opacity="0.25" stroke-width="0.5"/>
<path fill-rule="evenodd" clip-rule="evenodd" d="M537.108 4.05202C533.405 2.01734 528.823 1 523.36 1H496.698V72.0289H509.578V48.0289H523.187C528.672 48.0289 533.289 47.0231 537.039 45.0116C540.788 42.9769 543.623 40.1907 545.545 36.6532C547.466 33.1156 548.426 29.0694 548.426 24.5145C548.426 20.0058 547.466 15.9827 545.545 12.4451C543.647 8.88439 540.835 6.08671 537.108 4.05202ZM509.578 37.4509H521.451C524.645 37.4509 527.26 36.896 529.297 35.7861C531.334 34.6763 532.838 33.1503 533.81 31.2081C534.805 29.2659 535.303 27.0347 535.303 24.5145C535.303 21.9942 534.805 19.7746 533.81 17.8555C532.838 15.9364 531.322 14.4451 529.262 13.3815C527.226 12.2948 524.599 11.7515 521.382 11.7515H509.578V37.4509Z" stroke="white" stroke-opacity="0.25" stroke-width="0.5"/>
<path d="M667.648 1C671.397 1 674.437 4.03653 674.437 7.78227V11.7861H641.074V31.0694H672.041V41.8555H641.074V61.2428H674.714V65.2466C674.714 68.9924 671.675 72.0289 667.925 72.0289H628.194V1H667.648Z" stroke="white" stroke-opacity="0.25" stroke-width="0.5"/>
<path d="M594.362 1C574.611 1 558.599 15.9263 558.599 35.5391V37.4849C558.599 57.0976 574.611 72.024 594.362 72.024H615.525V60.3488H594.362C581.645 60.3488 571.337 50.1123 571.337 37.4849V35.5391C571.337 22.9117 581.645 12.6752 594.362 12.6752H615.525V1H594.362Z" stroke="white" stroke-opacity="0.25" stroke-width="0.5"/>
</svg>
