<svg width="526" height="58" viewBox="0 0 526 58" fill="none" xmlns="http://www.w3.org/2000/svg">
<path fill-rule="evenodd" clip-rule="evenodd" d="M31.5093 24.4143C28.485 23.0295 24.8578 22.3372 20.6275 22.3372H9.96166V9.38921H35.5056V1H6.28039C3.36411 1 1 3.36175 1 6.2751V50.9696C1 53.883 3.36411 56.2447 6.28039 56.2447H20.6275C24.8578 56.2447 28.485 55.5164 31.5093 54.0597C34.5515 52.6031 36.8827 50.589 38.5028 48.0173C40.1229 45.4277 40.933 42.4335 40.933 39.0347C40.933 35.6538 40.1229 32.7136 38.5028 30.2139C36.8827 27.7142 34.5515 25.781 31.5093 24.4143ZM26.2979 46.7765C24.7498 47.6217 22.8596 48.0443 20.6275 48.0443H9.96166V30.4836H20.6275C23.9757 30.4836 26.5409 31.3109 28.323 32.9653C30.1232 34.6018 31.0232 36.589 31.0232 38.9268C31.0232 40.5453 30.6182 42.0469 29.8081 43.4316C29.0161 44.8163 27.846 45.9313 26.2979 46.7765Z" stroke="white" stroke-opacity="0.25" stroke-width="0.5"/>
<path d="M61.306 47.9634C60.3879 48.377 59.2178 48.5838 57.7957 48.5838H54.6365V57H58.5788C61.531 57 63.9252 56.4965 65.7613 55.4894C67.6154 54.4644 69.1185 53.1246 70.2706 51.4701C71.4227 49.7977 72.4398 47.9904 73.3218 46.0482L92.3853 1H82.0705L70.1626 30.5645L56.3916 1H45.9148L65.6803 41.6243L64.9512 43.4856C64.5732 44.5106 64.0962 45.4098 63.5201 46.183C62.9621 46.9563 62.224 47.5498 61.306 47.9634Z" stroke="white" stroke-opacity="0.25" stroke-width="0.5"/>
<path fill-rule="evenodd" clip-rule="evenodd" d="M94.3482 48.0713C95.5902 47.0822 96.7513 45.6885 97.8314 43.8902C98.9115 42.0918 99.8296 39.6281 100.586 36.499C101.342 33.3699 101.864 29.3237 102.152 24.3603L103.61 1H138.955V56.2447H94.3482V48.0713ZM112.629 9.38921L111.764 24.3603C111.53 28.1188 111.152 31.4817 110.63 34.4489C110.108 37.4162 109.451 40.0328 108.659 42.2987C107.867 44.5466 106.985 46.4708 106.013 48.0713H129.343V9.38921H112.629Z" stroke="white" stroke-opacity="0.25" stroke-width="0.5"/>
<path fill-rule="evenodd" clip-rule="evenodd" d="M180.749 24.4143C177.725 23.0295 174.098 22.3372 169.867 22.3372H159.202V1H150.213V56.2447H169.867C174.098 56.2447 177.725 55.5164 180.749 54.0597C183.792 52.6031 186.123 50.589 187.743 48.0173C189.363 45.4277 190.173 42.4335 190.173 39.0347C190.173 35.6538 189.363 32.7136 187.743 30.2139C186.123 27.7142 183.792 25.781 180.749 24.4143ZM159.202 30.4836V48.0443H169.867C172.1 48.0443 173.99 47.6217 175.538 46.7765C177.086 45.9313 178.256 44.8163 179.048 43.4316C179.858 42.0469 180.263 40.5453 180.263 38.9268C180.263 36.589 179.363 34.6018 177.563 32.9653C175.781 31.3109 173.216 30.4836 169.867 30.4836H159.202Z" stroke="white" stroke-opacity="0.25" stroke-width="0.5"/>
<path fill-rule="evenodd" clip-rule="evenodd" d="M236.776 1C240.772 1 244.094 1.62941 246.74 2.88825C249.404 4.1291 251.393 5.82852 252.707 7.98652C254.039 10.1445 254.705 12.5902 254.705 15.3237C254.705 17.5716 254.273 19.4958 253.409 21.0963C252.545 22.6789 251.384 23.9647 249.926 24.9538C248.468 25.9428 246.839 26.6532 245.039 27.0848V27.6243C247.001 27.7322 248.882 28.3346 250.682 29.4316C252.5 30.5106 253.985 32.0392 255.138 34.0173C256.29 35.9955 256.866 38.3873 256.866 41.1927C256.866 44.052 256.173 46.6236 254.787 48.9075C253.4 51.1734 251.312 52.9627 248.522 54.2755C245.732 55.5883 242.222 56.2447 237.991 56.2447H216.608V1H236.776ZM236.398 47.8825C240.034 47.8825 242.654 47.1901 244.256 45.8054C245.876 44.4027 246.686 42.6044 246.686 40.4104C246.686 38.7739 246.281 37.2993 245.471 35.9865C244.661 34.6558 243.509 33.6127 242.015 32.8574C240.52 32.0841 238.738 31.6975 236.668 31.6975H225.624V47.8825H236.398ZM235.534 24.4952C237.262 24.4952 238.819 24.1805 240.205 23.5511C241.592 22.9037 242.681 21.9955 243.473 20.8266C244.283 19.6397 244.688 18.237 244.688 16.6185C244.688 14.4785 243.932 12.7161 242.42 11.3314C240.925 9.94669 238.702 9.25433 235.75 9.25433H225.624V24.4952H235.534Z" stroke="white" stroke-opacity="0.25" stroke-width="0.5"/>
<path d="M292.347 32.1021L312.95 56.2447H325.289L301.444 27.7592L324.344 1H312.005L292.347 23.7129V1H282.329V56.2447H292.347V32.1021Z" stroke="white" stroke-opacity="0.25" stroke-width="0.5"/>
<path d="M343.762 48.5838C345.184 48.5838 346.354 48.377 347.272 47.9634C348.19 47.5498 348.928 46.9563 349.486 46.183C350.062 45.4098 350.539 44.5106 350.917 43.4856L351.646 41.6243L331.881 1H342.358L356.129 30.5645L368.037 1H378.351L359.288 46.0482C358.406 47.9904 357.389 49.7977 356.237 51.4701C355.085 53.1246 353.582 54.4644 351.727 55.4894C349.891 56.4965 347.497 57 344.545 57H340.603V48.5838H343.762Z" stroke="white" stroke-opacity="0.25" stroke-width="0.5"/>
<path fill-rule="evenodd" clip-rule="evenodd" d="M417.973 3.3738C415.093 1.79127 411.529 1 407.28 1H386.543V56.2447H396.561V37.578H407.145C411.412 37.578 415.003 36.7958 417.919 35.2312C420.835 33.6487 423.04 31.4817 424.535 28.7302C426.029 25.9788 426.776 22.8317 426.776 19.289C426.776 15.7823 426.029 12.6532 424.535 9.90173C423.058 7.13231 420.871 4.95633 417.973 3.3738ZM396.561 29.3507H405.795C408.279 29.3507 410.314 28.9191 411.898 28.0559C413.482 27.1927 414.652 26.0058 415.408 24.4952C416.182 22.9846 416.569 21.2492 416.569 19.289C416.569 17.3288 416.182 15.6024 415.408 14.1098C414.652 12.6172 413.473 11.4573 411.871 10.6301C410.287 9.78484 408.243 9.36224 405.741 9.36224H396.561V29.3507Z" stroke="white" stroke-opacity="0.25" stroke-width="0.5"/>
<path d="M519.504 1C522.42 1 524.784 3.36175 524.784 6.2751V9.38921H498.835V24.3873H522.921V32.7765H498.835V47.8555H525V50.9696C525 53.883 522.636 56.2447 519.72 56.2447H488.817V1H519.504Z" stroke="white" stroke-opacity="0.25" stroke-width="0.5"/>
<path d="M462.504 1C447.142 1 434.688 12.6094 434.688 27.8637V29.3772C434.688 44.6315 447.142 56.2409 462.504 56.2409H478.964V47.1602H462.504C452.613 47.1602 444.595 39.1984 444.595 29.3772V27.8637C444.595 18.0424 452.613 10.0807 462.504 10.0807H478.964V1H462.504Z" stroke="white" stroke-opacity="0.25" stroke-width="0.5"/>
</svg>
