<svg width="24" height="24" viewBox="0 0 24 24" fill="none" xmlns="http://www.w3.org/2000/svg">
<path fill-rule="evenodd" clip-rule="evenodd" d="M15.0738 5.4248C14.4956 5.4248 13.9417 5.6535 13.5338 6.05948L6.81469 12.7478C6.13258 13.4268 5.75 14.3469 5.75 15.3057C5.75 16.2644 6.13258 17.1846 6.81469 17.8636C7.49692 18.5427 8.42295 18.9248 9.38925 18.9248C10.3547 18.9248 11.28 18.5433 11.9621 17.8653L16.6102 13.1748C16.9018 12.8806 17.3766 12.8784 17.6709 13.17C17.9651 13.4616 17.9672 13.9364 17.6757 14.2307L13.0257 18.923L13.022 18.9267C12.058 19.8863 10.7512 20.4248 9.38925 20.4248C8.02735 20.4248 6.72053 19.8863 5.75647 18.9267C4.7923 17.9669 4.25 16.6645 4.25 15.3057C4.25 13.9469 4.7923 12.6445 5.75647 11.6847L12.4756 4.99638C13.1653 4.30987 14.1 3.9248 15.0738 3.9248C16.0477 3.9248 16.9824 4.30987 17.6721 4.99638C18.3618 5.68301 18.75 6.61502 18.75 7.58755C18.75 8.56009 18.3618 9.49209 17.6721 10.1787L17.6718 10.179L10.9456 16.867C10.9455 16.8671 10.9454 16.8672 10.9453 16.8673C10.5301 17.2805 9.96764 17.5121 9.38194 17.5121C8.7961 17.5121 8.23357 17.2804 7.81827 16.867C7.40286 16.4535 7.16886 15.892 7.16886 15.3057C7.16886 14.7194 7.40286 14.1578 7.81827 13.7443L7.81859 13.744L14.0259 7.57242C14.3197 7.28037 14.7945 7.28174 15.0866 7.57548C15.3786 7.86922 15.3773 8.34409 15.0835 8.63614L8.87649 14.8074C8.87642 14.8075 8.87634 14.8076 8.87626 14.8076C8.87624 14.8077 8.87621 14.8077 8.87618 14.8077C8.74303 14.9404 8.66886 15.1196 8.66886 15.3057C8.66886 15.4919 8.74314 15.6712 8.87649 15.8039C9.00996 15.9368 9.19171 16.0121 9.38194 16.0121C9.57217 16.0121 9.75392 15.9368 9.88739 15.8039L9.88768 15.8037L16.6138 9.11563C16.6139 9.11557 16.6139 9.11551 16.614 9.11546C16.614 9.11542 16.6141 9.11538 16.6141 9.11534C17.0217 8.70951 17.25 8.1599 17.25 7.58755C17.25 7.01507 17.0216 6.46534 16.6138 6.05948C16.206 5.6535 15.6521 5.4248 15.0738 5.4248Z" fill="#0A0A0B"/>
</svg>
