<svg width="24" height="24" viewBox="0 0 24 24" fill="none" xmlns="http://www.w3.org/2000/svg">
<path fill-rule="evenodd" clip-rule="evenodd" d="M11.3813 0.256282C11.723 -0.0854272 12.277 -0.0854272 12.6187 0.256282C12.9604 0.59799 12.9604 1.15201 12.6187 1.49372L11.1124 3H12C13.9531 3 15.8623 3.57916 17.4863 4.66424C19.1102 5.74932 20.3759 7.29158 21.1233 9.096C21.8707 10.9004 22.0663 12.886 21.6853 14.8015C21.3042 16.7171 20.3637 18.4766 18.9827 19.8577C17.6016 21.2387 15.8421 22.1792 13.9265 22.5603C12.011 22.9413 10.0254 22.7457 8.221 21.9983C6.41658 21.2509 4.87432 19.9852 3.78924 18.3613C2.70416 16.7373 2.125 14.8281 2.125 12.875C2.125 12.3918 2.51675 12 3 12C3.48325 12 3.875 12.3918 3.875 12.875C3.875 14.482 4.35152 16.0529 5.24431 17.389C6.1371 18.7252 7.40605 19.7666 8.8907 20.3815C10.3753 20.9965 12.009 21.1574 13.5851 20.8439C15.1612 20.5304 16.6089 19.7565 17.7452 18.6202C18.8815 17.4839 19.6554 16.0362 19.9689 14.4601C20.2824 12.884 20.1215 11.2503 19.5065 9.7657C18.8916 8.28105 17.8502 7.0121 16.514 6.11931C15.1779 5.22652 13.607 4.75 12 4.75H11.1124L12.6187 6.25628C12.9604 6.59799 12.9604 7.15201 12.6187 7.49372C12.277 7.83543 11.723 7.83543 11.3813 7.49372L8.38128 4.49372C8.03957 4.15201 8.03957 3.59799 8.38128 3.25628L11.3813 0.256282ZM10.138 16.675V9.40232H8.88445L7.07692 10.5635V11.7709L8.77792 10.6843H8.82053V16.675H10.138ZM13.0417 16.5081C13.4157 16.6857 13.8395 16.7745 14.313 16.7745C14.8267 16.7745 15.2789 16.6679 15.6695 16.4549C16.0625 16.2394 16.3691 15.9447 16.5893 15.5706C16.8118 15.1942 16.9231 14.7657 16.9231 14.2851C16.9231 13.8188 16.8237 13.4045 16.6248 13.0422C16.4259 12.68 16.1537 12.3959 15.808 12.19C15.4624 11.9816 15.0694 11.8775 14.6291 11.8775C14.3355 11.8775 14.0656 11.9307 13.8194 12.0373C13.5732 12.1414 13.3826 12.2728 13.2477 12.4314H13.205L13.4146 10.5032H16.5431V9.40232H12.3244L11.9444 13.1523L13.134 13.3476C13.2571 13.2127 13.424 13.1038 13.6347 13.0209C13.8454 12.9381 14.0597 12.8978 14.2775 12.9002C14.545 12.9002 14.7818 12.9617 14.9877 13.0848C15.1937 13.2056 15.3559 13.3725 15.4742 13.5856C15.5926 13.7986 15.6506 14.0425 15.6482 14.3171C15.6506 14.587 15.5938 14.8273 15.4778 15.038C15.3618 15.2487 15.2032 15.4132 15.0019 15.5316C14.8007 15.65 14.5711 15.7091 14.313 15.7091C13.9839 15.7091 13.7022 15.6156 13.4678 15.4286C13.2335 15.2392 13.1044 14.9954 13.0808 14.6971H11.8023C11.8166 15.0995 11.9326 15.457 12.1504 15.7695C12.3705 16.082 12.6676 16.3282 13.0417 16.5081Z" fill="#0A0A0B"/>
</svg>
