<svg width="24" height="24" viewBox="0 0 24 24" fill="none" xmlns="http://www.w3.org/2000/svg">
<path d="M10.591 2.51305C11.4946 2.14669 12.5054 2.14669 13.409 2.51305L20.907 5.55305C21.23 5.68387 21.5065 5.90813 21.7013 6.1971C21.896 6.48607 22 6.8266 22 7.17505V16.8281C21.9998 17.1763 21.8957 17.5166 21.701 17.8054C21.5063 18.0942 21.2298 18.3183 20.907 18.4491L13.409 21.4891C12.5054 21.8554 11.4946 21.8554 10.591 21.4891L3.093 18.4491C2.77003 18.3182 2.49347 18.094 2.29875 17.805C2.10402 17.516 2 17.1755 2 16.8271V7.17605C2 6.8276 2.10402 6.48707 2.29875 6.1981C2.49347 5.90913 2.77003 5.68487 3.093 5.55405L10.591 2.51405V2.51305ZM12.845 3.90305C12.3031 3.68345 11.6969 3.68345 11.155 3.90305L9.24 4.68005L16.767 7.60705L19.436 6.57705L12.844 3.90405L12.845 3.90305ZM14.691 8.40805L7.215 5.50005L4.59 6.56405L12.001 9.44605L14.691 8.40805ZM3.5 16.8281C3.50013 16.8777 3.51504 16.9262 3.54282 16.9673C3.5706 17.0084 3.61 17.0404 3.656 17.0591L11.155 20.0991C11.186 20.1121 11.218 20.1241 11.25 20.1351V10.7641L3.5 7.75005V16.8281ZM12.845 20.0991L20.344 17.0591C20.3902 17.0403 20.4297 17.0082 20.4575 16.9669C20.4853 16.9256 20.5001 16.8769 20.5 16.8271V7.77405L12.75 10.7661V20.1361C12.7819 20.1248 12.8136 20.1128 12.845 20.1001V20.0991Z" fill="#0A0A0B"/>
</svg>
