<svg width="24" height="24" viewBox="0 0 24 24" fill="none" xmlns="http://www.w3.org/2000/svg">
<path fill-rule="evenodd" clip-rule="evenodd" d="M8.875 3.8999C8.875 3.41665 8.48325 3.0249 8 3.0249C7.51675 3.0249 7.125 3.41665 7.125 3.8999V5.02491H7C5.13604 5.02491 3.625 6.53596 3.625 8.39992V16.8999C3.625 18.7639 5.13604 20.2749 7 20.2749H17C18.864 20.2749 20.375 18.7639 20.375 16.8999V8.39991C20.375 6.53595 18.864 5.02491 17 5.02491H16.875V3.89993C16.875 3.41668 16.4832 3.02493 16 3.02493C15.5168 3.02493 15.125 3.41668 15.125 3.89993V5.02491H8.875V3.8999ZM17.375 8.77491C18.0654 8.77491 18.625 9.33456 18.625 10.0249V16.8999C18.625 17.7974 17.8975 18.5249 17 18.5249H7C6.10254 18.5249 5.375 17.7974 5.375 16.8999V10.0249C5.375 9.33456 5.93464 8.77491 6.625 8.77491H17.375ZM7.5 10.1249C7.01675 10.1249 6.625 10.5167 6.625 10.9999C6.625 11.4832 7.01675 11.8749 7.5 11.8749H8.5C8.98325 11.8749 9.375 11.4832 9.375 10.9999C9.375 10.5167 8.98325 10.1249 8.5 10.1249H7.5ZM7.5 12.8749C7.01675 12.8749 6.625 13.2667 6.625 13.7499C6.625 14.2332 7.01675 14.6249 7.5 14.6249H8.5C8.98325 14.6249 9.375 14.2332 9.375 13.7499C9.375 13.2667 8.98325 12.8749 8.5 12.8749H7.5ZM7.5 15.6249C7.01675 15.6249 6.625 16.0167 6.625 16.4999C6.625 16.9832 7.01675 17.3749 7.5 17.3749H8.5C8.98325 17.3749 9.375 16.9832 9.375 16.4999C9.375 16.0167 8.98325 15.6249 8.5 15.6249H7.5ZM10.625 10.9999C10.625 10.5167 11.0168 10.1249 11.5 10.1249H12.5C12.9832 10.1249 13.375 10.5167 13.375 10.9999C13.375 11.4832 12.9832 11.8749 12.5 11.8749H11.5C11.0168 11.8749 10.625 11.4832 10.625 10.9999ZM10.625 13.7499C10.625 13.2667 11.0168 12.8749 11.5 12.8749H12.5C12.9832 12.8749 13.375 13.2667 13.375 13.7499C13.375 14.2332 12.9832 14.6249 12.5 14.6249H11.5C11.0168 14.6249 10.625 14.2332 10.625 13.7499ZM10.625 16.4999C10.625 16.0167 11.0168 15.6249 11.5 15.6249H12.5C12.9832 15.6249 13.375 16.0167 13.375 16.4999C13.375 16.9832 12.9832 17.3749 12.5 17.3749H11.5C11.0168 17.3749 10.625 16.9832 10.625 16.4999ZM15.5 10.1249C15.0168 10.1249 14.625 10.5167 14.625 10.9999C14.625 11.4832 15.0168 11.8749 15.5 11.8749H16.5C16.9832 11.8749 17.375 11.4832 17.375 10.9999C17.375 10.5167 16.9832 10.1249 16.5 10.1249H15.5ZM15.5 12.8749C15.0168 12.8749 14.625 13.2667 14.625 13.7499C14.625 14.2332 15.0168 14.6249 15.5 14.6249H16.5C16.9832 14.6249 17.375 14.2332 17.375 13.7499C17.375 13.2667 16.9832 12.8749 16.5 12.8749H15.5ZM15.5 15.6249C15.0168 15.6249 14.625 16.0167 14.625 16.4999C14.625 16.9832 15.0168 17.3749 15.5 17.3749H16.5C16.9832 17.3749 17.375 16.9832 17.375 16.4999C17.375 16.0167 16.9832 15.6249 16.5 15.6249H15.5Z" fill="#0A0A0B"/>
</svg>
