<svg width="24" height="24" viewBox="0 0 24 24" fill="none" xmlns="http://www.w3.org/2000/svg">
<path d="M8.40001 11.9999C8.40001 11.0451 8.77929 10.1294 9.45442 9.45432C10.1296 8.77919 11.0452 8.3999 12 8.3999C12.9548 8.3999 13.8705 8.77919 14.5456 9.45432C15.2207 10.1294 15.6 11.0451 15.6 11.9999C15.6 12.9547 15.2207 13.8704 14.5456 14.5455C13.8705 15.2206 12.9548 15.5999 12 15.5999C11.0452 15.5999 10.1296 15.2206 9.45442 14.5455C8.77929 13.8704 8.40001 12.9547 8.40001 11.9999ZM8.14081 3.3911C8.29068 3.09312 8.5204 2.84265 8.80434 2.66762C9.08827 2.4926 9.41526 2.39991 9.74881 2.3999H14.2656C14.6001 2.39991 14.9279 2.49311 15.2124 2.66904C15.4968 2.84496 15.7266 3.09666 15.876 3.3959L16.578 4.7999H18.606C19.4017 4.7999 20.1647 5.11597 20.7273 5.67858C21.2899 6.24119 21.606 7.00425 21.606 7.7999V17.3999C21.606 18.1956 21.2899 18.9586 20.7273 19.5212C20.1647 20.0838 19.4017 20.3999 18.606 20.3999H5.40601C4.61036 20.3999 3.84729 20.0838 3.28469 19.5212C2.72208 18.9586 2.40601 18.1956 2.40601 17.3999V7.7999C2.40601 7.00425 2.72208 6.24119 3.28469 5.67858C3.84729 5.11597 4.61036 4.7999 5.40601 4.7999H7.43401L8.14081 3.3911ZM12 7.1999C10.727 7.1999 9.50607 7.70562 8.60589 8.60579C7.70572 9.50596 7.20001 10.7269 7.20001 11.9999C7.20001 13.2729 7.70572 14.4938 8.60589 15.394C9.50607 16.2942 10.727 16.7999 12 16.7999C13.273 16.7999 14.4939 16.2942 15.3941 15.394C16.2943 14.4938 16.8 13.2729 16.8 11.9999C16.8 10.7269 16.2943 9.50596 15.3941 8.60579C14.4939 7.70562 13.273 7.1999 12 7.1999Z" fill="#0A0A0B"/>
</svg>
