<svg width="24" height="24" viewBox="0 0 24 24" fill="none" xmlns="http://www.w3.org/2000/svg">
<path fill-rule="evenodd" clip-rule="evenodd" d="M2.10034 11.4644C2.10034 6.94089 6.61932 3.6001 11.7432 3.6001C16.8671 3.6001 21.3861 6.94089 21.3861 11.4644C21.3861 12.5416 21.1212 13.5655 20.648 14.4933C20.6444 14.5465 20.6451 14.634 20.6566 14.7613C20.68 15.0201 20.7402 15.3602 20.829 15.754C21.0055 16.537 21.273 17.4356 21.4931 18.1282C21.8566 19.2714 20.7089 20.3369 19.5948 19.8842C18.8873 19.5967 17.9461 19.2351 17.1046 18.9781C16.682 18.8491 16.307 18.7535 16.0107 18.7041C15.7346 18.6582 15.629 18.6712 15.6284 18.6674C15.6283 18.6669 15.6295 18.6663 15.632 18.6653C14.4393 19.093 13.1229 19.3287 11.7432 19.3287C6.61932 19.3287 2.10034 15.9879 2.10034 11.4644ZM20.6519 14.4585C20.6519 14.4586 20.6517 14.4605 20.6509 14.4641C20.6514 14.4603 20.6518 14.4585 20.6519 14.4585ZM11.7432 5.4001C7.20999 5.4001 3.90034 8.29534 3.90034 11.4644C3.90034 14.6334 7.20999 17.5287 11.7432 17.5287C12.9239 17.5287 14.0394 17.326 15.0381 16.9661C15.456 16.8154 15.9513 16.8695 16.3063 16.9286C16.7134 16.9963 17.173 17.117 17.6302 17.2566C18.2703 17.452 18.9497 17.6984 19.5482 17.9295C19.3792 17.3635 19.2047 16.7341 19.073 16.1499C18.9768 15.723 18.8976 15.2957 18.8639 14.9237C18.8471 14.7379 18.8396 14.5449 18.8528 14.3611C18.865 14.192 18.8994 13.9534 19.0187 13.7255C19.3871 13.0218 19.5861 12.2595 19.5861 11.4644C19.5861 8.29534 16.2764 5.4001 11.7432 5.4001Z" fill="#0A0A0B"/>
</svg>
