<svg width="24" height="24" viewBox="0 0 24 24" fill="none" xmlns="http://www.w3.org/2000/svg">
<path fill-rule="evenodd" clip-rule="evenodd" d="M4.38128 4.38128C4.72299 4.03957 5.27701 4.03957 5.61872 4.38128L12 10.7626L18.3812 4.38134C18.7229 4.03963 19.277 4.03963 19.6187 4.38134C19.9604 4.72305 19.9604 5.27707 19.6187 5.61878L13.2374 12L19.6187 18.3812C19.9604 18.7229 19.9604 19.277 19.6187 19.6187C19.277 19.9604 18.7229 19.9604 18.3812 19.6187L12 13.2374L5.61872 19.6187C5.27701 19.9604 4.72299 19.9604 4.38128 19.6187C4.03957 19.277 4.03957 18.723 4.38128 18.3813L10.7626 12L4.38128 5.61872C4.03957 5.27701 4.03957 4.72299 4.38128 4.38128Z" fill="#0A0A0B"/>
</svg>
