<svg width="24" height="24" viewBox="0 0 24 24" fill="none" xmlns="http://www.w3.org/2000/svg">
<path d="M12 2.25C10.7574 2.25 9.75 3.25736 9.75 4.5V6C9.75 6.13807 9.86193 6.25 10 6.25H12.5C14.5711 6.25 16.25 7.92893 16.25 10V15.5C16.25 15.6381 16.3619 15.75 16.5 15.75H18C19.2426 15.75 20.25 14.7426 20.25 13.5V4.5C20.25 3.25736 19.2426 2.25 18 2.25H12Z" fill="#0A0A0B"/>
<path d="M4.25 10C4.25 8.75736 5.25736 7.75 6.5 7.75H12.5C13.7426 7.75 14.75 8.75736 14.75 10V19C14.75 20.2426 13.7426 21.25 12.5 21.25H6.5C5.25736 21.25 4.25 20.2426 4.25 19V10Z" fill="#0A0A0B"/>
</svg>
