<svg width="24" height="24" viewBox="0 0 24 24" fill="none" xmlns="http://www.w3.org/2000/svg">
<path d="M7.42896 12H13.1432M7.42896 14.2857H15.429M7.42896 16.5714H10.8575M18.8575 17.7143V9.71429L13.1432 4H7.42896C6.82275 4 6.24137 4.24082 5.81272 4.66947C5.38407 5.09812 5.14325 5.67951 5.14325 6.28571V17.7143C5.14325 18.3205 5.38407 18.9019 5.81272 19.3305C6.24137 19.7592 6.82275 20 7.42896 20H16.5718C17.178 20 17.7594 19.7592 18.1881 19.3305C18.6167 18.9019 18.8575 18.3205 18.8575 17.7143V17.7143Z" stroke="#0A0A0B" stroke-width="1.5" stroke-linecap="round" stroke-linejoin="round"/>
<path d="M13.1432 4V7.42857C13.1432 8.03478 13.3841 8.61616 13.8127 9.04482C14.2414 9.47347 14.8228 9.71429 15.429 9.71429H18.8575" stroke="#0A0A0B" stroke-width="1.5" stroke-linecap="round" stroke-linejoin="round"/>
</svg>
