<svg width="24" height="24" viewBox="0 0 24 24" fill="none" xmlns="http://www.w3.org/2000/svg">
<path fill-rule="evenodd" clip-rule="evenodd" d="M18.75 9.24985C18.2415 9.75838 17.9872 10.0126 17.6814 10.069C17.5615 10.0912 17.4385 10.0912 17.3186 10.069C17.0128 10.0126 16.7585 9.75838 16.25 9.24985L14.75 7.74985C14.2415 7.24132 13.9872 6.98706 13.9308 6.68123C13.9087 6.56132 13.9087 6.43838 13.9308 6.31846C13.9872 6.01264 14.2415 5.75838 14.75 5.24985C15.2585 4.74132 15.5128 4.48706 15.8186 4.43065C15.9385 4.40853 16.0615 4.40853 16.1814 4.43065C16.4872 4.48706 16.7415 4.74132 17.25 5.24985L18.75 6.74985C19.2585 7.25838 19.5128 7.51264 19.5692 7.81846C19.5913 7.93838 19.5913 8.06132 19.5692 8.18123C19.5128 8.48706 19.2585 8.74132 18.75 9.24985ZM6 19.9998C5.05719 19.9998 4.58579 19.9998 4.29289 19.707C4 19.4141 4 18.9427 4 17.9998V16.8283C4 16.4195 4 16.2151 4.07612 16.0314C4.15224 15.8476 4.29676 15.7031 4.58579 15.4141L11.0858 8.91406C11.7525 8.2474 12.0858 7.91406 12.5 7.91406C12.9142 7.91406 13.2475 8.2474 13.9142 8.91406L15.0858 10.0856C15.7525 10.7523 16.0858 11.0856 16.0858 11.4998C16.0858 11.9141 15.7525 12.2474 15.0858 12.9141L8.58579 19.4141C8.29676 19.7031 8.15224 19.8476 7.96847 19.9237C7.7847 19.9998 7.58032 19.9998 7.17157 19.9998H6Z" fill="#212129"/>
</svg>
