<svg width="24" height="24" viewBox="0 0 24 24" fill="none" xmlns="http://www.w3.org/2000/svg">
<path fill-rule="evenodd" clip-rule="evenodd" d="M12 2.5C17.2467 2.5 21.5 6.77932 21.5 12.0581C21.5 16.8288 18.026 20.783 13.4844 21.5V14.821H15.6979V14.8209L16.1191 12.0581V12.0581H13.4844V10.2652C13.4844 10.2652 13.4844 10.2652 13.4844 10.2652C13.4844 10.0801 13.5064 9.89612 13.5571 9.72386C13.7133 9.19259 14.1414 8.7725 15.0326 8.7725H16.2305V8.77248V6.42032V6.4203C16.2305 6.4203 15.1433 6.23362 14.1039 6.23362C12.2052 6.23362 10.8819 7.24669 10.5808 9.10474C10.5378 9.37018 10.5156 9.65286 10.5156 9.9523C10.5156 9.95231 10.5156 9.95231 10.5156 9.95232V12.0581H8.10352V12.0581V14.8209V14.821H10.5156V21.5C5.97403 20.783 2.5 16.8287 2.5 12.0581C2.5 6.77925 6.75333 2.5 12 2.5Z" fill="#1877F2"/>
</svg>
