<svg width="24" height="24" viewBox="0 0 24 24" fill="none" xmlns="http://www.w3.org/2000/svg">
<path fill-rule="evenodd" clip-rule="evenodd" d="M7.25 5.375C7.04289 5.375 6.875 5.54289 6.875 5.75V18.934L11.4097 16.1432C11.7712 15.9206 12.2273 15.9206 12.5889 16.1431L17.125 18.9342V5.75C17.125 5.54289 16.9571 5.375 16.75 5.375H7.25ZM5.125 5.75C5.125 4.57639 6.07639 3.625 7.25 3.625H16.75C17.9236 3.625 18.875 4.57639 18.875 5.75V20.0526C18.875 20.9327 17.91 21.472 17.1604 21.0108L11.9994 17.8351L6.83966 21.0107C6.0901 21.472 5.125 20.9327 5.125 20.0526V5.75Z" fill="#0A0A0B"/>
</svg>
