<svg width="24" height="24" viewBox="0 0 24 24" fill="none" xmlns="http://www.w3.org/2000/svg">
<path fill-rule="evenodd" clip-rule="evenodd" d="M13.5 8.5C13.5 9.60457 14.3954 10.5 15.5 10.5C16.2908 10.5 16.9744 10.0411 17.2989 9.375H20C20.4832 9.375 20.875 8.98325 20.875 8.5C20.875 8.01675 20.4832 7.625 20 7.625H17.2989C16.9744 6.95894 16.2908 6.5 15.5 6.5C14.3954 6.5 13.5 7.39543 13.5 8.5ZM11 7.625C11.4832 7.625 11.875 8.01675 11.875 8.5C11.875 8.98325 11.4832 9.375 11 9.375H4C3.51675 9.375 3.125 8.98325 3.125 8.5C3.125 8.01675 3.51675 7.625 4 7.625H11ZM4 14.625C3.51675 14.625 3.125 15.0168 3.125 15.5C3.125 15.9832 3.51675 16.375 4 16.375H6.70106C7.02563 17.0411 7.70922 17.5 8.5 17.5C9.60457 17.5 10.5 16.6046 10.5 15.5C10.5 14.3954 9.60457 13.5 8.5 13.5C7.70922 13.5 7.02563 13.9589 6.70106 14.625H4ZM12.125 15.5C12.125 15.0168 12.5168 14.625 13 14.625H20C20.4832 14.625 20.875 15.0168 20.875 15.5C20.875 15.9832 20.4832 16.375 20 16.375H13C12.5168 16.375 12.125 15.9832 12.125 15.5Z" fill="#0A0A0B"/>
</svg>
