<svg width="24" height="24" viewBox="0 0 24 24" fill="none" xmlns="http://www.w3.org/2000/svg">
<path d="M20.8249 10.2373H20.1V10.2H12V13.8H17.0864C16.3443 15.8956 14.3503 17.4 12 17.4C9.01785 17.4 6.6 14.9822 6.6 12C6.6 9.01785 9.01785 6.6 12 6.6C13.3765 6.6 14.6289 7.1193 15.5824 7.96755L18.1281 5.4219C16.5207 3.92385 14.3706 3 12 3C7.02975 3 3 7.02975 3 12C3 16.9703 7.02975 21 12 21C16.9703 21 21 16.9703 21 12C21 11.3966 20.9379 10.8075 20.8249 10.2373Z" fill="#FFC107"/>
<path d="M4.03809 7.81095L6.99504 9.9795C7.79514 7.9986 9.73284 6.6 12.0004 6.6C13.3769 6.6 14.6293 7.1193 15.5828 7.96755L18.1285 5.4219C16.5211 3.92385 14.371 3 12.0004 3C8.54349 3 5.54559 4.95165 4.03809 7.81095Z" fill="#FF3D00"/>
<path d="M12 20.9999C14.3247 20.9999 16.437 20.1103 18.0341 18.6635L15.2486 16.3064C14.3146 17.0167 13.1734 17.4008 12 17.3999C9.65914 17.3999 7.67149 15.9073 6.92269 13.8242L3.98779 16.0855C5.47729 19.0001 8.50219 20.9999 12 20.9999Z" fill="#4CAF50"/>
<path d="M20.825 10.2375H20.1V10.2002H12V13.8002H17.0864C16.7314 14.7976 16.092 15.6691 15.2472 16.3071L15.2485 16.3062L18.034 18.6633C17.8369 18.8424 21 16.5002 21 12.0002C21 11.3967 20.9379 10.8077 20.825 10.2375Z" fill="#1976D2"/>
</svg>
