<svg width="24" height="24" viewBox="0 0 24 24" fill="none" xmlns="http://www.w3.org/2000/svg">
<path fill-rule="evenodd" clip-rule="evenodd" d="M19.2714 3.75502C17.7647 2.24833 15.3219 2.24833 13.8152 3.75502L11.7058 5.86441C11.3641 6.20612 11.3641 6.76014 11.7058 7.10185C12.0475 7.44356 12.6015 7.44356 12.9432 7.10185L15.0526 4.99246C15.8759 4.16918 17.2107 4.16918 18.034 4.99246L19.0075 5.96602C19.8308 6.7893 19.8308 8.12409 19.0075 8.94737L14.7888 13.1662C13.9655 13.9894 12.6307 13.9894 11.8074 13.1662L11.6451 13.0039C11.3034 12.6622 10.7494 12.6622 10.4077 13.0039C10.066 13.3456 10.066 13.8996 10.4077 14.2413L10.57 14.4036C12.0767 15.9103 14.5195 15.9103 16.0262 14.4036L20.245 10.1848C21.7517 8.67811 21.7517 6.23528 20.245 4.72859L19.2714 3.75502ZM9.21124 10.8338C10.0345 10.0105 11.3693 10.0105 12.1926 10.8338L12.3548 10.996C12.6966 11.3377 13.2506 11.3377 13.5923 10.996C13.934 10.6543 13.934 10.1003 13.5923 9.75859L13.43 9.59633L12.8129 10.2134L13.43 9.59633C11.9233 8.08963 9.4805 8.08964 7.97381 9.59633L3.75502 13.8151C2.24833 15.3218 2.24833 17.7646 3.75502 19.2713L4.72859 20.2449C6.23528 21.7516 8.67811 21.7516 10.1848 20.2449L12.2942 18.1355C12.6359 17.7938 12.6359 17.2398 12.2942 16.8981C11.9525 16.5564 11.3985 16.5564 11.0568 16.8981L8.94737 19.0075C8.12409 19.8307 6.7893 19.8307 5.96602 19.0075L4.99246 18.0339C4.16918 17.2106 4.16918 15.8758 4.99246 15.0525L9.21124 10.8338Z" fill="#0A0A0B"/>
</svg>
