<svg width="24" height="24" viewBox="0 0 24 24" fill="none" xmlns="http://www.w3.org/2000/svg">
<path fill-rule="evenodd" clip-rule="evenodd" d="M2.75 12C2.75 6.89137 6.89137 2.75 12 2.75C17.1086 2.75 21.25 6.89137 21.25 12C21.25 17.1086 17.1086 21.25 12 21.25C6.89137 21.25 2.75 17.1086 2.75 12ZM12 4.25C7.71979 4.25 4.25 7.71979 4.25 12C4.25 16.2802 7.71979 19.75 12 19.75C16.2802 19.75 19.75 16.2802 19.75 12C19.75 7.71979 16.2802 4.25 12 4.25ZM12 10C12.4142 10 12.75 10.3358 12.75 10.75V16.25C12.75 16.6642 12.4142 17 12 17C11.5858 17 11.25 16.6642 11.25 16.25V10.75C11.25 10.3358 11.5858 10 12 10ZM13 7.75C13 7.19772 12.5523 6.75 12 6.75C11.4477 6.75 11 7.19772 11 7.75V7.76C11 8.31228 11.4477 8.76 12 8.76C12.5523 8.76 13 8.31228 13 7.76V7.75Z" fill="#0A0A0B"/>
</svg>
