<svg width="24" height="24" viewBox="0 0 24 24" fill="none" xmlns="http://www.w3.org/2000/svg">
<path fill-rule="evenodd" clip-rule="evenodd" d="M2.5 6C2.5 5.44772 2.94772 5 3.5 5H3.51C4.06228 5 4.51 5.44772 4.51 6C4.51 6.55228 4.06228 7 3.51 7H3.5C2.94772 7 2.5 6.55228 2.5 6ZM7.5 5.125C7.01675 5.125 6.625 5.51675 6.625 6C6.625 6.48325 7.01675 6.875 7.5 6.875H20.5C20.9832 6.875 21.375 6.48325 21.375 6C21.375 5.51675 20.9832 5.125 20.5 5.125H7.5ZM7.5 11.125C7.01675 11.125 6.625 11.5168 6.625 12C6.625 12.4832 7.01675 12.875 7.5 12.875H20.5C20.9832 12.875 21.375 12.4832 21.375 12C21.375 11.5168 20.9832 11.125 20.5 11.125H7.5ZM6.625 18C6.625 17.5168 7.01675 17.125 7.5 17.125H20.5C20.9832 17.125 21.375 17.5168 21.375 18C21.375 18.4832 20.9832 18.875 20.5 18.875H7.5C7.01675 18.875 6.625 18.4832 6.625 18ZM3.5 11C2.94772 11 2.5 11.4477 2.5 12C2.5 12.5523 2.94772 13 3.5 13H3.51C4.06228 13 4.51 12.5523 4.51 12C4.51 11.4477 4.06228 11 3.51 11H3.5ZM3.5 17C2.94772 17 2.5 17.4477 2.5 18C2.5 18.5523 2.94772 19 3.5 19H3.51C4.06228 19 4.51 18.5523 4.51 18C4.51 17.4477 4.06228 17 3.51 17H3.5Z" fill="#0A0A0B"/>
</svg>
