<svg width="24" height="24" viewBox="0 0 24 24" fill="none" xmlns="http://www.w3.org/2000/svg">
<path fill-rule="evenodd" clip-rule="evenodd" d="M4.875 6.25C4.875 5.62868 5.37868 5.125 6 5.125H18C18.6213 5.125 19.125 5.62868 19.125 6.25V8.25C19.125 8.87132 18.6213 9.375 18 9.375H6C5.37868 9.375 4.875 8.87132 4.875 8.25V6.25ZM6 3.375C4.41218 3.375 3.125 4.66218 3.125 6.25V8.25C3.125 9.83782 4.41218 11.125 6 11.125H18C19.5878 11.125 20.875 9.83782 20.875 8.25V6.25C20.875 4.66218 19.5878 3.375 18 3.375H6ZM4.875 15.75C4.875 15.1287 5.37868 14.625 6 14.625H18C18.6213 14.625 19.125 15.1287 19.125 15.75V17.75C19.125 18.3713 18.6213 18.875 18 18.875H6C5.37868 18.875 4.875 18.3713 4.875 17.75V15.75ZM6 12.875C4.41218 12.875 3.125 14.1622 3.125 15.75V17.75C3.125 19.3378 4.41218 20.625 6 20.625H18C19.5878 20.625 20.875 19.3378 20.875 17.75V15.75C20.875 14.1622 19.5878 12.875 18 12.875H6Z" fill="#0A0A0B"/>
</svg>
