<svg width="24" height="24" viewBox="0 0 24 24" fill="none" xmlns="http://www.w3.org/2000/svg">
<path fill-rule="evenodd" clip-rule="evenodd" d="M2.75 6C2.75 4.20508 4.20507 2.75 6 2.75H18C19.7949 2.75 21.25 4.20507 21.25 6V18C21.25 19.7949 19.7949 21.25 18 21.25H6C4.20508 21.25 2.75 19.7949 2.75 18V6ZM6 4.25C5.0335 4.25 4.25 5.0335 4.25 6V18C4.25 18.9665 5.0335 19.75 6 19.75H18C18.9665 19.75 19.75 18.9665 19.75 18V6C19.75 5.0335 18.9665 4.25 18 4.25H6ZM9.5 8C9.5 7.58579 9.83579 7.25 10.25 7.25H17C17.4142 7.25 17.75 7.58579 17.75 8C17.75 8.41421 17.4142 8.75 17 8.75H10.25C9.83579 8.75 9.5 8.41421 9.5 8ZM7.25 7C6.69772 7 6.25 7.44772 6.25 8C6.25 8.55228 6.69772 9 7.25 9H7.26C7.81228 9 8.26 8.55228 8.26 8C8.26 7.44772 7.81228 7 7.26 7H7.25ZM9.5 12C9.5 11.5858 9.83579 11.25 10.25 11.25H17C17.4142 11.25 17.75 11.5858 17.75 12C17.75 12.4142 17.4142 12.75 17 12.75H10.25C9.83579 12.75 9.5 12.4142 9.5 12ZM7.25 11C6.69772 11 6.25 11.4477 6.25 12C6.25 12.5523 6.69772 13 7.25 13H7.26C7.81228 13 8.26 12.5523 8.26 12C8.26 11.4477 7.81228 11 7.26 11H7.25ZM9.5 16C9.5 15.5858 9.83579 15.25 10.25 15.25H17C17.4142 15.25 17.75 15.5858 17.75 16C17.75 16.4142 17.4142 16.75 17 16.75H10.25C9.83579 16.75 9.5 16.4142 9.5 16ZM7.25 15C6.69772 15 6.25 15.4477 6.25 16C6.25 16.5523 6.69772 17 7.25 17H7.26C7.81228 17 8.26 16.5523 8.26 16C8.26 15.4477 7.81228 15 7.26 15H7.25Z" fill="#0A0A0B"/>
</svg>
