<svg width="103" height="40" viewBox="0 0 103 40" fill="none" xmlns="http://www.w3.org/2000/svg">
<path fill-rule="evenodd" clip-rule="evenodd" d="M9.98782 0H0V39.9256H9.98782V23.0822L17.7908 39.9257H27.7786L17.3226 18.9492L22.9407 8.26599H15.1378L9.98782 18.7932V0ZM31.2121 8.26599H34.9575V18.6011L42.1359 8.26599H45.57H49.3147H49.3154V31.192H45.57V14.9516L34.9575 31.1915V31.192L34.9572 31.192L31.2121 31.192V8.26599ZM62.8915 8.26599H56.6492V31.192H62.8915V8.26599ZM69.1333 31.192V21.5223H62.8918V17.7792H69.1333V8.26599H75.3757V31.192H69.1333ZM91.3572 8.26599C85.2033 8.26599 80.2145 13.2547 80.2145 19.4087V20.0493C80.2145 26.2033 85.2033 31.192 91.3572 31.192C97.5111 31.192 102.5 26.2033 102.5 20.0493V19.4087C102.5 13.2547 97.5111 8.26599 91.3572 8.26599ZM88.0927 28.6779C91.0084 29.7384 94.8059 26.6613 96.5746 21.8049C98.3433 16.9486 97.4135 12.152 94.4978 11.0914C91.5821 10.0309 87.7846 13.108 86.0159 17.9644C84.2472 22.8207 85.177 27.6173 88.0927 28.6779ZM64.1624 38.7187C64.3876 38.3022 64.5002 37.7971 64.5002 37.2034C64.5002 36.6097 64.3876 36.1046 64.1624 35.6881C63.9389 35.2716 63.6339 34.9544 63.2473 34.7364C62.8624 34.5166 62.4297 34.4067 61.9491 34.4067C61.465 34.4067 61.0305 34.5166 60.6457 34.7364C60.2609 34.9544 59.9567 35.2716 59.7333 35.6881C59.5098 36.1046 59.3981 36.6097 59.3981 37.2034C59.3981 37.7953 59.5098 38.2995 59.7333 38.716C59.9567 39.1325 60.2609 39.4506 60.6457 39.6704C61.0305 39.8901 61.465 40 61.9491 40C62.4297 40 62.8624 39.891 63.2473 39.673C63.6339 39.4533 63.9389 39.1351 64.1624 38.7187ZM63.1595 36.2304C63.2748 36.4945 63.3324 36.8188 63.3324 37.2034C63.3324 37.5879 63.2748 37.9123 63.1595 38.1763C63.046 38.4404 62.8855 38.6407 62.678 38.7771C62.4705 38.9136 62.2276 38.9818 61.9491 38.9818C61.6707 38.9818 61.4278 38.9136 61.2203 38.7771C61.0128 38.6407 60.8514 38.4404 60.7361 38.1763C60.6226 37.9123 60.5659 37.5879 60.5659 37.2034C60.5659 36.8188 60.6226 36.4945 60.7361 36.2304C60.8514 35.9663 61.0128 35.7661 61.2203 35.6296C61.4278 35.4931 61.6707 35.4249 61.9491 35.4249C62.2276 35.4249 62.4705 35.4931 62.678 35.6296C62.8855 35.7661 63.046 35.9663 63.1595 36.2304ZM31.2951 34.4812V39.9256H32.447V38.1604H33.4152C33.8338 38.1604 34.1902 38.0833 34.4846 37.9291C34.7808 37.7749 35.0069 37.5596 35.1629 37.2831C35.319 37.0066 35.397 36.6876 35.397 36.3261C35.397 35.9646 35.3199 35.6455 35.1656 35.3691C35.0131 35.0908 34.7914 34.8737 34.5006 34.7178C34.2097 34.56 33.8577 34.4812 33.4445 34.4812H31.2951ZM32.447 37.2379H33.229C33.4507 37.2379 33.6334 37.1998 33.777 37.1236C33.9224 37.0456 34.0306 36.9384 34.1016 36.8019C34.1743 36.6637 34.2106 36.5051 34.2106 36.3261C34.2106 36.1453 34.1743 35.9876 34.1016 35.8529C34.0306 35.7164 33.9224 35.611 33.777 35.5365C33.6316 35.4603 33.4472 35.4222 33.2237 35.4222H32.447V37.2379ZM40.4899 34.4812V39.9256H44.1715V38.9765H41.6417V37.6766H43.972V36.7275H41.6417V35.4302H44.1608V34.4812H40.4899ZM54.0525 34.4812V39.9256H52.914V35.4169H50.7114V39.9256H49.5729V34.4812H54.0525ZM69.6981 34.4812H71.8475C72.2607 34.4812 72.6127 34.56 72.9035 34.7178C73.1944 34.8737 73.4161 35.0908 73.5686 35.3691C73.7229 35.6455 73.8 35.9646 73.8 36.3261C73.8 36.6876 73.722 37.0066 73.5659 37.2831C73.4099 37.5596 73.1837 37.7749 72.8876 37.9291C72.5932 38.0833 72.2367 38.1604 71.8182 38.1604H70.8499V39.9256H69.6981V34.4812ZM71.632 37.2379H70.8499V35.4222H71.6267C71.8501 35.4222 72.0346 35.4603 72.18 35.5365C72.3254 35.611 72.4336 35.7164 72.5045 35.8529C72.5772 35.9876 72.6136 36.1453 72.6136 36.3261C72.6136 36.5051 72.5772 36.6637 72.5045 36.8019C72.4336 36.9384 72.3254 37.0456 72.18 37.1236C72.0364 37.1998 71.8537 37.2379 71.632 37.2379ZM78.6854 34.4812V35.4302H80.3533V39.9256H81.4918V35.4302H83.1597V34.4812H78.6854ZM88.2412 34.4812H91.9122V35.4302H89.3931V36.7275H91.7233V37.6766H89.3931V38.9765H91.9228V39.9256H88.2412V34.4812ZM99.322 34.4812H97.1726V39.9256H98.3244V38.1604H99.2927C99.7113 38.1604 100.068 38.0833 100.362 37.9291C100.658 37.7749 100.884 37.5596 101.04 37.2831C101.196 37.0066 101.275 36.6876 101.275 36.3261C101.275 35.9646 101.197 35.6455 101.043 35.3691C100.891 35.0908 100.669 34.8737 100.378 34.7178C100.087 34.56 99.7352 34.4812 99.322 34.4812ZM98.3244 37.2379H99.1065C99.3282 37.2379 99.5109 37.1998 99.6545 37.1236C99.7999 37.0456 99.9081 36.9384 99.979 36.8019C100.052 36.6637 100.088 36.5051 100.088 36.3261C100.088 36.1453 100.052 35.9876 99.979 35.8529C99.9081 35.7164 99.7999 35.611 99.6545 35.5365C99.5091 35.4603 99.3246 35.4222 99.1012 35.4222H98.3244V37.2379Z" fill="#E01D51"/>
</svg>
