<svg width="20" height="18" viewBox="0 0 20 18" fill="none" xmlns="http://www.w3.org/2000/svg">
<g clip-path="url(#clip0_1301_44565)">
<path d="M19.6389 1.36944C19.8646 1.52499 20 1.78159 20 2.05555V13.7222C20 14.0382 19.7847 14.3785 19.4618 14.5L13.6285 16.7222C13.4514 16.7917 13.2535 16.7951 13.0694 16.7361L6.68403 14.6076L1.12986 16.7222C0.873958 16.8194 0.586111 16.7847 0.360417 16.6319C0.249257 16.555 0.158403 16.4523 0.0956329 16.3325C0.0328632 16.2128 4.88506e-05 16.0796 0 15.9444L0 4.27777C0 3.93055 0.213542 3.62152 0.536806 3.49895L6.37153 1.27673C6.54861 1.20832 6.74653 1.20416 6.93056 1.26492L13.316 3.39305L18.8715 1.27673C19.125 1.17916 19.4132 1.21388 19.6389 1.36944ZM1.66667 14.7361L5.83333 13.1493V3.26492L1.66667 4.85069V14.7361ZM12.5 4.87846L7.5 3.2118V13.1215L12.5 14.7882V4.87846ZM14.1667 14.7361L18.3333 13.1493V3.26492L14.1667 4.85069V14.7361Z" fill="#0A0A0B"/>
</g>
<defs>
<clipPath id="clip0_1301_44565">
<rect width="20" height="17.7778" fill="white" transform="translate(0 0.111328)"/>
</clipPath>
</defs>
</svg>
