<svg width="24" height="22" viewBox="0 0 24 22" fill="none" xmlns="http://www.w3.org/2000/svg">
<g clip-path="url(#clip0_1315_42725)">
<path d="M23.5667 1.84371C23.8375 2.03038 24 2.3383 24 2.66705V16.667C24 17.0462 23.7417 17.4545 23.3542 17.6004L16.3542 20.267C16.1417 20.3504 15.9042 20.3545 15.6833 20.2837L8.02083 17.7295L1.35583 20.267C1.04875 20.3837 0.703333 20.342 0.4325 20.1587C0.299109 20.0664 0.190083 19.9431 0.11476 19.7994C0.0394358 19.6557 5.86207e-05 19.4959 0 19.3337L0 5.33371C0 4.91705 0.25625 4.54621 0.644167 4.39913L7.64583 1.73246C7.85833 1.65038 8.09583 1.64538 8.31667 1.7183L15.9792 4.27205L22.6458 1.73246C22.95 1.61538 23.2958 1.65705 23.5667 1.84371ZM2 17.8837L7 15.9795V4.1183L2 6.02121V17.8837ZM15 6.05455L9 4.05455V15.9462L15 17.9462V6.05455ZM17 17.8837L22 15.9795V4.1183L17 6.02121V17.8837Z" fill="#0A0A0B"/>
</g>
<defs>
<clipPath id="clip0_1315_42725">
<rect width="24" height="21.3333" fill="white" transform="translate(0 0.333496)"/>
</clipPath>
</defs>
</svg>
