<svg width="24" height="24" viewBox="0 0 24 24" fill="none" xmlns="http://www.w3.org/2000/svg">
<path fill-rule="evenodd" clip-rule="evenodd" d="M2.625 6C2.625 5.51675 3.01675 5.125 3.5 5.125H20.5C20.9832 5.125 21.375 5.51675 21.375 6C21.375 6.48325 20.9832 6.875 20.5 6.875H3.5C3.01675 6.875 2.625 6.48325 2.625 6ZM2.625 12C2.625 11.5168 3.01675 11.125 3.5 11.125H20.5C20.9832 11.125 21.375 11.5168 21.375 12C21.375 12.4832 20.9832 12.875 20.5 12.875H3.5C3.01675 12.875 2.625 12.4832 2.625 12ZM3.5 17.125C3.01675 17.125 2.625 17.5168 2.625 18C2.625 18.4832 3.01675 18.875 3.5 18.875H20.5C20.9832 18.875 21.375 18.4832 21.375 18C21.375 17.5168 20.9832 17.125 20.5 17.125H3.5Z" fill="#0A0A0B"/>
</svg>
