<svg width="24" height="24" viewBox="0 0 24 24" fill="none" xmlns="http://www.w3.org/2000/svg">
<path fill-rule="evenodd" clip-rule="evenodd" d="M5.25 5C4.00736 5 3 6.00736 3 7.25V7.85927C3 8.03022 3.08734 8.18932 3.23156 8.2811L11.5973 13.6048C11.843 13.7611 12.157 13.7611 12.4027 13.6048L20.7684 8.2811C20.9127 8.18932 21 8.03022 21 7.85927V7.25C21 6.00736 19.9926 5 18.75 5H5.25ZM21 10.8225C21 10.428 20.5644 10.1889 20.2316 10.4007L13.208 14.8703C12.4709 15.3393 11.5291 15.3393 10.792 14.8703L3.76844 10.4007C3.43558 10.1889 3 10.428 3 10.8225V16.75C3 17.9926 4.00736 19 5.25 19H18.75C19.9926 19 21 17.9926 21 16.75V10.8225Z" fill="#0A0A0B"/>
</svg>
