<svg width="24" height="24" viewBox="0 0 24 24" fill="none" xmlns="http://www.w3.org/2000/svg">
<path d="M11.9728 12.3241C9.28905 12.3241 7.05842 10.0953 7.05842 7.45811C7.05842 4.72968 9.28905 2.5 11.9738 2.5C14.7497 2.5 16.8882 4.72873 16.8882 7.45811C16.8834 8.75303 16.3647 9.99306 15.446 10.9057C14.5273 11.8183 13.2839 12.3288 11.989 12.325L11.9728 12.3241ZM11.9728 5.36619C10.8366 5.36619 9.97211 6.32095 9.97211 7.45906C9.97211 8.59528 10.8366 9.45979 11.9738 9.45979C13.1565 9.45979 13.9755 8.59528 13.9755 7.45906C13.9764 6.32 13.1565 5.36619 11.9728 5.36619ZM13.9299 16.373L16.7067 19.0568C17.253 19.6468 17.253 20.5113 16.7067 21.0575C16.1158 21.6475 15.2048 21.6475 14.7497 21.0575L11.9738 18.3281L9.28905 21.0575C9.0164 21.3302 8.65159 21.466 8.24119 21.466C7.92293 21.466 7.55908 21.3292 7.23987 21.0575C6.69362 20.5113 6.69362 19.6468 7.23987 19.0559L10.0614 16.3721C9.04246 16.0703 8.06499 15.643 7.15152 15.1C6.46846 14.7362 6.33261 13.827 6.69647 13.1439C7.15152 12.4618 7.97043 12.2804 8.69909 12.7354C9.68577 13.3376 10.8193 13.6561 11.9752 13.6561C13.1311 13.6561 14.2646 13.3376 15.2513 12.7354C15.98 12.2804 16.8435 12.4618 17.253 13.1439C17.6634 13.827 17.4801 14.7352 16.8426 15.1C15.979 15.6463 14.9777 16.0557 13.9308 16.374L13.9299 16.373Z" fill="#EE8100"/>
</svg>
