<svg width="24" height="24" viewBox="0 0 24 24" fill="none" xmlns="http://www.w3.org/2000/svg">
<path d="M3.75 3.75V20.25H20.25V3.75H3.75ZM3 2.25H21C21.1989 2.25 21.3897 2.32902 21.5303 2.46967C21.671 2.61032 21.75 2.80109 21.75 3V21C21.75 21.1989 21.671 21.3897 21.5303 21.5303C21.3897 21.671 21.1989 21.75 21 21.75H3C2.80109 21.75 2.61032 21.671 2.46967 21.5303C2.32902 21.3897 2.25 21.1989 2.25 21V3C2.25 2.80109 2.32902 2.61032 2.46967 2.46967C2.61032 2.32902 2.80109 2.25 3 2.25Z" fill="#0A0A0B"/>
<path d="M9.00004 6.75C10 6.75 10.5 7.25 10.5 8.25C10.5 9.25 10 9.75 9.00004 9.75C8.00004 9.75 7.50004 9.25 7.50004 8.25C7.50004 7.25 8.00004 6.75 9.00004 6.75ZM4.34554 20.5545L3.15454 19.6425L8.22004 13.032C8.39968 12.7974 8.62377 12.6004 8.87953 12.4524C9.13528 12.3044 9.41768 12.2082 9.71061 12.1694C10.0035 12.1305 10.3012 12.1497 10.5867 12.2259C10.8722 12.3021 11.1399 12.4338 11.3745 12.6135L11.418 12.648L14.298 14.9715C14.453 15.0962 14.6511 15.1543 14.8489 15.1329C15.0467 15.1115 15.2278 15.0125 15.3525 14.8575L20.415 8.532L21.585 9.468L16.527 15.792L16.521 15.7995C16.3355 16.0297 16.1065 16.221 15.847 16.3626C15.5876 16.5042 15.3027 16.5933 15.0088 16.6248C14.7149 16.6563 14.4176 16.6296 14.134 16.5461C13.8504 16.4627 13.5861 16.3242 13.356 16.1385L10.476 13.8165L10.461 13.8045C10.3032 13.684 10.104 13.6311 9.9072 13.6572C9.71037 13.6834 9.53194 13.7865 9.41104 13.944L4.34554 20.5545Z" fill="#0A0A0B"/>
</svg>
