<svg width="16" height="16" viewBox="0 0 16 16" fill="none" xmlns="http://www.w3.org/2000/svg">
<path d="M9.828 0.722169C9.89371 0.722051 9.95879 0.734885 10.0195 0.759937C10.0803 0.784989 10.1355 0.821767 10.182 0.868169L15.132 5.81817C15.2257 5.91193 15.2784 6.03909 15.2784 6.17167C15.2784 6.30425 15.2257 6.43141 15.132 6.52517C14.652 7.00517 14.06 7.11317 13.629 7.11317C13.452 7.11317 13.294 7.09517 13.169 7.07417L10.035 10.2082C10.1175 10.5406 10.171 10.8795 10.195 11.2212C10.241 11.9232 10.163 12.9082 9.47501 13.5962C9.38124 13.6899 9.25409 13.7426 9.1215 13.7426C8.98892 13.7426 8.86177 13.6899 8.768 13.5962L5.939 10.7682L2.757 13.9502C2.562 14.1452 1.538 14.8522 1.343 14.6572C1.148 14.4622 1.855 13.4372 2.05 13.2432L5.232 10.0612L2.404 7.23217C2.31027 7.1384 2.25761 7.01125 2.25761 6.87867C2.25761 6.74609 2.31027 6.61893 2.404 6.52517C3.092 5.83717 4.077 5.75817 4.779 5.80517C5.12066 5.82911 5.4596 5.88264 5.792 5.96517L8.926 2.83217C8.89985 2.67989 8.88647 2.52568 8.886 2.37117C8.886 1.94117 8.99401 1.34917 9.47501 0.868169C9.56871 0.7747 9.69565 0.722197 9.828 0.722169Z" fill="black"/>
</svg>
