<svg width="16" height="16" viewBox="0 0 16 16" fill="none" xmlns="http://www.w3.org/2000/svg">
<path fill-rule="evenodd" clip-rule="evenodd" d="M2 2.75C1.58579 2.75 1.25 3.08579 1.25 3.5V11C1.25 11.4142 1.58579 11.75 2 11.75H5.25C5.94036 11.75 6.5 12.3096 6.5 13V13.3796C6.5 13.5842 6.66582 13.75 6.87037 13.75H7.125C7.19404 13.75 7.25 13.694 7.25 13.625V6.25V4.75C7.25 3.64543 6.35457 2.75 5.25 2.75H2ZM14 2.75C14.4142 2.75 14.75 3.08579 14.75 3.5V11C14.75 11.4142 14.4142 11.75 14 11.75H10.75C10.0596 11.75 9.5 12.3096 9.5 13V13.3796C9.5 13.5842 9.33418 13.75 9.12963 13.75H8.875C8.80596 13.75 8.75 13.694 8.75 13.625V6.25V4.75C8.75 3.64543 9.64543 2.75 10.75 2.75H14Z" fill="#0A0A0B"/>
</svg>
