<svg width="24" height="24" viewBox="0 0 24 24" fill="none" xmlns="http://www.w3.org/2000/svg">
<path d="M12 4.5C13.4834 4.5 14.9334 4.93987 16.1668 5.76398C17.4001 6.58809 18.3614 7.75943 18.9291 9.12987C19.4968 10.5003 19.6453 12.0083 19.3559 13.4632C19.0665 14.918 18.3522 16.2544 17.3033 17.3033C16.2544 18.3522 14.918 19.0665 13.4632 19.3559C12.0083 19.6453 10.5003 19.4968 9.12987 18.9291C7.75943 18.3614 6.58809 17.4001 5.76398 16.1668C4.93987 14.9334 4.5 13.4834 4.5 12C4.5 11.8011 4.42098 11.6103 4.28033 11.4697C4.13968 11.329 3.94891 11.25 3.75 11.25C3.55109 11.25 3.36032 11.329 3.21967 11.4697C3.07902 11.6103 3 11.8011 3 12C2.99995 14.0607 3.70708 16.059 5.00323 17.6611C6.29938 19.2631 8.10605 20.3718 10.1214 20.8019C12.1367 21.2321 14.2386 20.9576 16.0758 20.0244C17.9131 19.0912 19.3745 17.5557 20.2158 15.6745C21.0571 13.7934 21.2274 11.6805 20.6982 9.6889C20.1689 7.6973 18.9723 5.94764 17.3082 4.73224C15.644 3.51684 13.6132 2.90933 11.555 3.01121C9.49685 3.11309 7.53596 3.9182 6 5.292V3.75C6 3.55109 5.92098 3.36032 5.78033 3.21967C5.63968 3.07902 5.44891 3 5.25 3C5.05109 3 4.86032 3.07902 4.71967 3.21967C4.57902 3.36032 4.5 3.55109 4.5 3.75V8.25C4.5 8.44891 4.57902 8.63968 4.71967 8.78033C4.86032 8.92098 5.05109 9 5.25 9H8.25C8.44891 9 8.63968 8.92098 8.78033 8.78033C8.92098 8.63968 9 8.44891 9 8.25C9 8.05109 8.92098 7.86032 8.78033 7.71967C8.63968 7.57902 8.44891 7.5 8.25 7.5H6C6.69795 6.56784 7.6037 5.81131 8.64526 5.29053C9.68683 4.76975 10.8355 4.49907 12 4.5ZM12.0015 8.25C12.0015 8.05109 11.9225 7.86032 11.7818 7.71967C11.6412 7.57902 11.4504 7.5 11.2515 7.5C11.0526 7.5 10.8618 7.57902 10.7212 7.71967C10.5805 7.86032 10.5015 8.05109 10.5015 8.25V12.75C10.5015 12.9489 10.5805 13.1397 10.7212 13.2803C10.8618 13.421 11.0526 13.5 11.2515 13.5H14.2515C14.4504 13.5 14.6412 13.421 14.7818 13.2803C14.9225 13.1397 15.0015 12.9489 15.0015 12.75C15.0015 12.5511 14.9225 12.3603 14.7818 12.2197C14.6412 12.079 14.4504 12 14.2515 12H12.0015V8.25Z" fill="#0A0A0B"/>
</svg>
