<svg width="24" height="24" viewBox="0 0 24 24" fill="none" xmlns="http://www.w3.org/2000/svg">
<path fill-rule="evenodd" clip-rule="evenodd" d="M8.99995 6.75H6.14214C5.99094 6.75 5.87435 6.88317 5.89433 7.03304L7.62766 20.033C7.64422 20.1572 7.75017 20.25 7.87547 20.25H16.1244C16.2497 20.25 16.3557 20.1572 16.3722 20.033L18.1056 7.03304C18.1256 6.88317 18.009 6.75 17.8578 6.75H15H8.99995ZM15.6749 5.25H17.8578C18.9162 5.25 19.7323 6.18219 19.5924 7.23129L17.8591 20.2313C17.7432 21.1007 17.0015 21.75 16.1244 21.75H7.87547C6.99837 21.75 6.25674 21.1007 6.14082 20.2313L4.40749 7.23129C4.26761 6.18219 5.08375 5.25 6.14214 5.25H8.32497C8.67242 3.53832 10.1857 2.25 12 2.25C13.8142 2.25 15.3275 3.53832 15.6749 5.25ZM14.1219 5.25C13.813 4.37611 12.9796 3.75 12 3.75C11.0203 3.75 10.1869 4.37611 9.87798 5.25H14.1219ZM10.2474 10.4377C10.213 10.0249 9.85045 9.71819 9.43767 9.75259C9.02489 9.78699 8.71814 10.1495 8.75254 10.5623L9.25254 16.5623C9.28694 16.9751 9.64945 17.2818 10.0622 17.2474C10.475 17.213 10.7818 16.8505 10.7474 16.4377L10.2474 10.4377ZM14.5622 9.75259C14.975 9.78699 15.2818 10.1495 15.2474 10.5623L14.7474 16.5623C14.713 16.9751 14.3505 17.2818 13.9377 17.2474C13.5249 17.213 13.2181 16.8505 13.2525 16.4377L13.7525 10.4377C13.7869 10.0249 14.1495 9.71819 14.5622 9.75259Z" fill="#0A0A0B"/>
</svg>
