<svg width="24" height="24" viewBox="0 0 24 24" fill="none" xmlns="http://www.w3.org/2000/svg">
<path fill-rule="evenodd" clip-rule="evenodd" d="M5.29092 11.2587C5.68804 8.01339 8.45363 5.5 11.8063 5.5C14.0324 5.5 16 6.60746 17.1882 8.30488C17.4257 8.64423 17.8934 8.72676 18.2327 8.48923C18.572 8.2517 18.6546 7.78406 18.4171 7.44471C16.9602 5.36349 14.5425 4 11.8063 4C7.68559 4 4.28676 7.09064 3.80141 11.0803L3.32455 10.512C3.0583 10.1947 2.58523 10.1533 2.26793 10.4196C1.95062 10.6858 1.90923 11.1589 2.17548 11.4762L3.83773 13.4572C4.10398 13.7745 4.57704 13.8159 4.89435 13.5496L6.87533 11.8874C7.19264 11.6211 7.23403 11.148 6.96778 10.8307C6.70153 10.5134 6.22846 10.472 5.91115 10.7383L5.29092 11.2587ZM18.3216 12.8699L17.7015 13.3902C17.3842 13.6565 16.9111 13.6151 16.6449 13.2978C16.3786 12.9805 16.42 12.5074 16.7373 12.2412L18.7183 10.5789C19.0356 10.3127 19.5087 10.3541 19.7749 10.6714L21.4372 12.6523C21.7034 12.9696 21.662 13.4427 21.3447 13.709C21.0274 13.9752 20.5543 13.9338 20.2881 13.6165L19.8111 13.0481C19.3259 17.0378 15.927 20.1286 11.8063 20.1286C9.07035 20.1286 6.6529 18.7654 5.19604 16.6847C4.95847 16.3453 5.04095 15.8777 5.38026 15.6401C5.71958 15.4025 6.18723 15.485 6.4248 15.8243C7.613 17.5214 9.58039 18.6286 11.8063 18.6286C15.1589 18.6286 17.9245 16.1152 18.3216 12.8699Z" fill="#0A0A0B"/>
</svg>
