<svg width="24" height="24" viewBox="0 0 24 24" fill="none" xmlns="http://www.w3.org/2000/svg">
<path fill-rule="evenodd" clip-rule="evenodd" d="M12.6187 0.256282C12.277 -0.0854272 11.723 -0.0854272 11.3813 0.256282C11.0396 0.59799 11.0396 1.15201 11.3813 1.49372L12.8876 3H12C10.0469 3 8.13768 3.57916 6.51375 4.66424C4.88981 5.74932 3.62411 7.29158 2.87669 9.096C2.12928 10.9004 1.93372 12.886 2.31475 14.8015C2.69578 16.7171 3.63628 18.4766 5.01733 19.8577C6.39837 21.2387 8.15792 22.1792 10.0735 22.5603C11.989 22.9413 13.9746 22.7457 15.779 21.9983C17.5834 21.2509 19.1257 19.9852 20.2108 18.3613C21.2958 16.7373 21.875 14.8281 21.875 12.875C21.875 12.3918 21.4833 12 21 12C20.5168 12 20.125 12.3918 20.125 12.875C20.125 14.482 19.6485 16.0529 18.7557 17.389C17.8629 18.7252 16.594 19.7666 15.1093 20.3815C13.6247 20.9965 11.991 21.1574 10.4149 20.8439C8.8388 20.5304 7.39106 19.7565 6.25476 18.6202C5.11846 17.4839 4.34463 16.0362 4.03112 14.4601C3.71762 12.884 3.87852 11.2503 4.49348 9.7657C5.10845 8.28105 6.14985 7.0121 7.486 6.11931C8.82215 5.22652 10.393 4.75 12 4.75H12.8876L11.3813 6.25628C11.0396 6.59799 11.0396 7.15201 11.3813 7.49372C11.723 7.83543 12.277 7.83543 12.6187 7.49372L15.6187 4.49372C15.9604 4.15201 15.9604 3.59799 15.6187 3.25628L12.6187 0.256282ZM10.138 16.675V9.40232H8.88445L7.07692 10.5635V11.7709L8.77791 10.6843H8.82053V16.675H10.138ZM13.0417 16.5081C13.4157 16.6857 13.8395 16.7745 14.313 16.7745C14.8267 16.7745 15.2789 16.6679 15.6695 16.4549C16.0625 16.2394 16.3691 15.9447 16.5893 15.5706C16.8118 15.1942 16.9231 14.7657 16.9231 14.2851C16.9231 13.8188 16.8237 13.4045 16.6248 13.0422C16.4259 12.68 16.1537 12.3959 15.808 12.19C15.4624 11.9816 15.0694 11.8775 14.629 11.8775C14.3355 11.8775 14.0656 11.9307 13.8194 12.0373C13.5732 12.1414 13.3826 12.2728 13.2477 12.4314H13.205L13.4146 10.5032H16.5431V9.40232H12.3244L11.9444 13.1523L13.134 13.3476C13.2571 13.2127 13.424 13.1038 13.6347 13.0209C13.8454 12.9381 14.0597 12.8978 14.2775 12.9002C14.545 12.9002 14.7817 12.9617 14.9877 13.0848C15.1937 13.2056 15.3558 13.3725 15.4742 13.5856C15.5926 13.7986 15.6506 14.0425 15.6482 14.3171C15.6506 14.587 15.5938 14.8273 15.4778 15.038C15.3618 15.2487 15.2031 15.4132 15.0019 15.5316C14.8007 15.65 14.571 15.7091 14.313 15.7091C13.9839 15.7091 13.7022 15.6156 13.4678 15.4286C13.2335 15.2392 13.1044 14.9954 13.0808 14.6971H11.8023C11.8165 15.0995 11.9326 15.457 12.1504 15.7695C12.3705 16.082 12.6676 16.3282 13.0417 16.5081Z" fill="#0A0A0B"/>
</svg>
