<svg width="24" height="24" viewBox="0 0 24 24" fill="none" xmlns="http://www.w3.org/2000/svg">
<path fill-rule="evenodd" clip-rule="evenodd" d="M10.1111 4.375C6.94312 4.375 4.375 6.94313 4.375 10.1111C4.375 13.279 6.94312 15.8472 10.1111 15.8472C11.693 15.8472 13.1253 15.2068 14.163 14.1711C14.1643 14.1699 14.1655 14.1686 14.1668 14.1674C14.168 14.1661 14.1693 14.1648 14.1706 14.1636C15.2065 13.1258 15.8471 11.6933 15.8471 10.1111C15.8471 6.94313 13.279 4.375 10.1111 4.375ZM15.9869 14.7501C16.9952 13.4747 17.5971 11.8632 17.5971 10.1111C17.5971 5.97664 14.2455 2.625 10.1111 2.625C5.97662 2.625 2.625 5.97664 2.625 10.1111C2.625 14.2455 5.97662 17.5972 10.1111 17.5972C11.8628 17.5972 13.4741 16.9955 14.7494 15.9874L19.8806 21.1187C20.2224 21.4604 20.7764 21.4604 21.1181 21.1187C21.4598 20.777 21.4598 20.223 21.1181 19.8813L15.9869 14.7501Z" fill="#0A0A0B"/>
</svg>
