<svg width="24" height="24" viewBox="0 0 24 24" fill="none" xmlns="http://www.w3.org/2000/svg">
<path fill-rule="evenodd" clip-rule="evenodd" d="M9.5 17C13.6421 17 17 13.6421 17 9.5C17 5.35786 13.6421 2 9.5 2C5.35786 2 2 5.35786 2 9.5C2 13.6421 5.35786 17 9.5 17ZM15.2344 17.3556C15.0134 17.1347 15.0478 16.768 15.2917 16.5726C15.765 16.1937 16.1938 15.7649 16.5727 15.2917C16.768 15.0477 17.1347 15.0133 17.3557 15.2343L21.0607 18.9393C21.6465 19.5251 21.6465 20.4749 21.0607 21.0607C20.4749 21.6464 19.5252 21.6464 18.9394 21.0607L15.2344 17.3556Z" fill="#0A0A0B"/>
</svg>
