<svg width="24" height="24" viewBox="0 0 24 24" fill="none" xmlns="http://www.w3.org/2000/svg">
<path fill-rule="evenodd" clip-rule="evenodd" d="M12.6187 2.38128C12.277 2.03957 11.723 2.03957 11.3813 2.38128L8.38128 5.38128C8.03957 5.72299 8.03957 6.27701 8.38128 6.61872C8.72299 6.96043 9.27701 6.96043 9.61872 6.61872L11.125 5.11244V14C11.125 14.4832 11.5168 14.875 12 14.875C12.4832 14.875 12.875 14.4832 12.875 14V5.11244L14.3813 6.61872C14.723 6.96043 15.277 6.96043 15.6187 6.61872C15.9604 6.27701 15.9604 5.72299 15.6187 5.38128L12.6187 2.38128ZM4.625 11.5C4.625 10.8787 5.12868 10.375 5.75 10.375H7.75C8.23325 10.375 8.625 9.98325 8.625 9.5C8.625 9.01675 8.23325 8.625 7.75 8.625H5.75C4.16218 8.625 2.875 9.91218 2.875 11.5V18.5C2.875 20.0878 4.16218 21.375 5.75 21.375H18.25C19.8378 21.375 21.125 20.0878 21.125 18.5V11.5C21.125 9.91218 19.8378 8.625 18.25 8.625H16.25C15.7668 8.625 15.375 9.01675 15.375 9.5C15.375 9.98325 15.7668 10.375 16.25 10.375H18.25C18.8713 10.375 19.375 10.8787 19.375 11.5V18.5C19.375 19.1213 18.8713 19.625 18.25 19.625H5.75C5.12868 19.625 4.625 19.1213 4.625 18.5V11.5Z" fill="#0A0A0B"/>
</svg>
