<svg width="24" height="24" viewBox="0 0 24 24" fill="none" xmlns="http://www.w3.org/2000/svg">
<path fill-rule="evenodd" clip-rule="evenodd" d="M10.125 6H6V18H10.125C10.6082 18 11 18.3918 11 18.875C11 19.3582 10.6082 19.75 10.125 19.75H5.75C5.35218 19.75 4.97065 19.592 4.68934 19.3107C4.40804 19.0294 4.25 18.6478 4.25 18.25V5.75C4.25 5.35217 4.40804 4.97064 4.68934 4.68934C4.97064 4.40804 5.35217 4.25 5.75 4.25H10.125C10.6082 4.25 11 4.64175 11 5.125C11 5.60825 10.6082 6 10.125 6ZM14.9761 8.09995C15.3178 7.75829 15.8719 7.75836 16.2135 8.10011L19.4939 11.3814C19.8355 11.7231 19.8355 12.2769 19.4939 12.6186L16.2135 15.8999C15.8719 16.2416 15.3178 16.2417 14.9761 15.9C14.6343 15.5584 14.6343 15.0044 14.9759 14.6626L16.7631 12.875H10.125C9.64175 12.875 9.25 12.4832 9.25 12C9.25 11.5168 9.64175 11.125 10.125 11.125H16.7631L14.9759 9.33739C14.6343 8.99563 14.6343 8.44161 14.9761 8.09995Z" fill="#0A0A0B"/>
</svg>
