<svg width="24" height="24" viewBox="0 0 24 24" fill="none" xmlns="http://www.w3.org/2000/svg">
<path d="M22 6.33215C21.3013 6.64176 20.5507 6.85096 19.7616 6.94551C20.5758 6.45833 21.1849 5.69157 21.4753 4.78829C20.7104 5.24265 19.8732 5.56247 19.0001 5.73385C18.413 5.10699 17.6354 4.69149 16.7879 4.55187C15.9405 4.41226 15.0707 4.55632 14.3135 4.96171C13.5563 5.3671 12.9542 6.01113 12.6005 6.79381C12.2469 7.57649 12.1616 8.45403 12.3577 9.29018C10.8078 9.21236 9.29146 8.80949 7.90725 8.10773C6.52304 7.40596 5.30186 6.42099 4.32295 5.21672C3.98824 5.7941 3.79578 6.46353 3.79578 7.17647C3.79541 7.81828 3.95346 8.45025 4.25591 9.01633C4.55836 9.5824 4.99586 10.0651 5.5296 10.4215C4.91061 10.4018 4.30528 10.2346 3.76398 9.93367V9.98387C3.76392 10.884 4.07529 11.7565 4.64527 12.4532C5.21524 13.1499 6.00871 13.628 6.89104 13.8063C6.31683 13.9617 5.71481 13.9846 5.13045 13.8732C5.37939 14.6478 5.86431 15.3251 6.51731 15.8103C7.17031 16.2956 7.95871 16.5645 8.77213 16.5794C7.3913 17.6634 5.68598 18.2514 3.9305 18.2488C3.61954 18.2489 3.30884 18.2307 3 18.1944C4.78191 19.3401 6.85618 19.9481 8.97463 19.9458C16.1459 19.9458 20.0662 14.0063 20.0662 8.85505C20.0662 8.6877 20.062 8.51867 20.0545 8.35131C20.817 7.79985 21.4753 7.11697 21.9983 6.33466L22 6.33215Z" fill="#1DA1F2"/>
</svg>
