<svg width="16" height="16" viewBox="0 0 16 16" fill="none" xmlns="http://www.w3.org/2000/svg">
<path fill-rule="evenodd" clip-rule="evenodd" d="M13.7237 6.04693C10.7585 2.49608 5.2415 2.49608 2.27629 6.04693C1.51988 6.95273 1 7.68858 1 8.00003C1 8.31149 1.51988 9.04734 2.27629 9.95314C5.2415 13.504 10.7585 13.504 13.7237 9.95314C14.4801 9.04734 15 8.31149 15 8.00003C15 7.68858 14.4801 6.95273 13.7237 6.04693ZM6 8.00007C6 6.8955 6.89543 6.00007 8 6.00007C9.10457 6.00007 10 6.8955 10 8.00007C10 9.10464 9.10457 10.0001 8 10.0001C6.89543 10.0001 6 9.10464 6 8.00007ZM8 5.00007C6.34315 5.00007 5 6.34322 5 8.00007C5 9.65692 6.34315 11.0001 8 11.0001C9.65685 11.0001 11 9.65692 11 8.00007C11 6.34322 9.65685 5.00007 8 5.00007Z" fill="#0A0A0B"/>
</svg>
