<svg width="24" height="24" viewBox="0 0 24 24" fill="none" xmlns="http://www.w3.org/2000/svg">
<path fill-rule="evenodd" clip-rule="evenodd" d="M20.5642 7.74486C20.6956 7.31586 20.5642 7 19.9348 7H17.8568C17.3279 7 17.0841 7.27264 16.9519 7.57357C16.9519 7.57357 15.895 10.0847 14.398 11.7159C13.9135 12.1889 13.6935 12.3389 13.4291 12.3389C13.2968 12.3389 13.0981 12.1889 13.0981 11.7591V7.74486C13.0981 7.22943 12.9525 7 12.5123 7H9.24439C8.91427 7 8.71557 7.23886 8.71557 7.46593C8.71557 7.95386 9.46447 8.067 9.54126 9.44043V12.4246C9.54126 13.0791 9.42014 13.1977 9.15572 13.1977C8.45116 13.1977 6.73723 10.6748 5.71996 7.78807C5.52284 7.22629 5.32335 7 4.79215 7H2.71249C2.11875 7 2 7.27264 2 7.57357C2 8.10943 2.70457 10.7714 5.28139 14.2922C6.99927 16.6965 9.41776 18 11.6209 18C12.9422 18 13.1053 17.7109 13.1053 17.2119V15.3946C13.1053 14.8155 13.2303 14.7 13.6491 14.7C13.9579 14.7 14.4859 14.8509 15.7193 16.0098C17.1284 17.384 17.3604 18 18.1536 18H20.2317C20.8254 18 21.1231 17.7109 20.9521 17.1389C20.7637 16.57 20.0908 15.7442 19.1986 14.7644C18.7141 14.2066 17.9874 13.6055 17.7665 13.3046C17.4586 12.9188 17.5464 12.7467 17.7665 12.4034C17.7665 12.4034 20.2998 8.92579 20.5634 7.74486H20.5642Z" fill="#0077FF"/>
</svg>
