<svg width="24" height="24" viewBox="0 0 24 24" fill="none" xmlns="http://www.w3.org/2000/svg">
<path d="M12 22C17.5228 22 22 17.5228 22 12C22 6.47715 17.5228 2 12 2C6.47715 2 2 6.47715 2 12C2 17.5228 6.47715 22 12 22Z" fill="#FC3F1D"/>
<path d="M16 18H13.6329V7.62435H12.5785C10.6456 7.62435 9.63317 8.48086 9.63317 9.75942C9.63317 11.21 10.3315 11.8821 11.7761 12.7386L12.9667 13.4497L9.54513 17.9982H7L10.0794 13.9373C8.30858 12.8166 7.31214 11.7225 7.31214 9.87646C7.31214 7.56938 9.12695 6 12.5625 6H15.984V17.9965H16V18Z" fill="white"/>
</svg>
