<svg width="24" height="24" viewBox="0 0 24 24" fill="none" xmlns="http://www.w3.org/2000/svg">
<path d="M21.1022 7.48667C20.9946 7.08396 20.785 6.71936 20.4958 6.43164C20.1984 6.13507 19.8339 5.92293 19.4367 5.81524C17.9502 5.40402 11.9945 5.40402 11.9945 5.40402C9.5116 5.37438 7.02934 5.50477 4.56171 5.79447C4.1645 5.91012 3.80068 6.127 3.5026 6.42583C3.20973 6.72157 2.99759 7.08626 2.88677 7.48584C2.62056 8.99092 2.49122 10.5191 2.50049 12.0499C2.49099 13.5793 2.62001 15.107 2.88677 16.614C2.99521 17.0119 3.20656 17.3749 3.50023 17.6682C3.7939 17.9614 4.1596 18.1732 4.56171 18.2854C6.06805 18.6958 11.9945 18.6958 11.9945 18.6958C14.4805 18.7255 16.9659 18.5951 19.4367 18.3053C19.8339 18.1976 20.1984 17.9855 20.4958 17.6889C20.7849 17.4013 20.9942 17.0366 21.1014 16.6339C21.3745 15.1294 21.5073 13.6005 21.4979 12.069C21.5185 10.531 21.3858 8.99492 21.1022 7.48584V7.48667ZM10.101 14.8943V9.20629L15.0562 12.0507L10.101 14.8943Z" fill="#FF0302"/>
</svg>
